<svg xmlns="http://www.w3.org/2000/svg" viewBox="0 0 256 256" role="img" aria-label="Nimburion icon dark" shape-rendering="geometricPrecision">
  <defs>
    <clipPath id="clipID">
      <circle cx="128" cy="128" r="112"/>
    </clipPath>
  </defs>
  <circle cx="128" cy="128" r="112" fill="#D9EEF2"/>
  <g clip-path="url(#clipID)">
    <path d="M225 72 A112 112 0 0 1 238.3 147.4 L210.7 142.6 A84 84 0 0 0 200.7 86 Z" fill="#1F2A37"/>
    <path d="M-10 152 C42 104 98 86 152 98 C196 108 220 126 270 146 L270 176
             C224 162 190 150 152 146 C94 138 48 160 -10 206 Z" fill="#2AA7A1"/>
    <path d="M-10 190 C52 158 106 168 152 178 C206 192 232 212 270 232 L270 270 L-10 270 Z" fill="#1F2A37"/>
  </g>
  <!-- border ring (for separation on dark backgrounds) -->
  <circle cx="128" cy="128" r="106" fill="none" stroke="#1F2A37" stroke-width="12"/>
</svg>