<svg xmlns="http://www.w3.org/2000/svg" viewBox="0 0 640 960" role="img" aria-label="Nimburion logo vertical" shape-rendering="geometricPrecision">
  <g id="nimburion-symbol" transform="translate(200 180) scale(0.9375)">
  <defs>
    <clipPath id="clipDV">
      <circle cx="128" cy="128" r="112"/>
    </clipPath>
  </defs>
  <circle cx="128" cy="128" r="112" fill="#D9EEF2"/>
  <g clip-path="url(#clipDV)">
    <path d="M225 72 A112 112 0 0 1 238.3 147.4 L210.7 142.6 A84 84 0 0 0 200.7 86 Z" fill="#1F2A37"/>
    <path d="M-10 152 C42 104 98 86 152 98 C196 108 220 126 270 146 L270 176
             C224 162 190 150 152 146 C94 138 48 160 -10 206 Z" fill="#2AA7A1"/>
    <path d="M-10 190 C52 158 106 168 152 178 C206 192 232 212 270 232 L270 270 L-10 270 Z" fill="#1F2A37"/>
  </g>
  <!-- border ring (for separation on dark backgrounds) -->
  <circle cx="128" cy="128" r="106" fill="none" stroke="#1F2A37" stroke-width="12"/>
  </g>
  <g id="wordmark" transform="translate(320 560) scale(0.94 1)">
    <text x="0" y="0" text-anchor="middle" fill="#D9EEF2" font-family="IBM Plex Sans, Inter, system-ui, -apple-system, Segoe UI, Roboto, Arial, sans-serif" font-size="96" font-weight="600" letter-spacing="-0.5">Nimburion</text>
  </g>
</svg>