<svg xmlns="http://www.w3.org/2000/svg" viewBox="0 0 960 640" role="img" aria-label="Nimburion logo" shape-rendering="geometricPrecision">
    <g id="nimburion-symbol" transform="translate(110 200) scale(0.9375)">
    <defs>
      <clipPath id="clipInnerW">
        <circle cx="128" cy="128" r="100"/>
      </clipPath>
    </defs>

    <circle cx="128" cy="128" r="106" fill="none" stroke="#FFFFFF" stroke-width="12"/>

    <g clip-path="url(#clipInnerW)" fill="#FFFFFF">
      <g transform="translate(128 128) scale(0.892857) translate(-128 -128)">
        <path d="M225 72 A112 112 0 0 1 238.3 147.4 L210.7 142.6 A84 84 0 0 0 200.7 86 Z"/>
        <path d="M-10 152 C42 104 98 86 152 98 C196 108 220 126 270 146 L270 176
                 C224 162 190 150 152 146 C94 138 48 160 -10 206 Z"/>
        <path d="M-10 190 C52 158 106 168 152 178 C206 192 232 212 270 232 L270 270 L-10 270 Z"/>
      </g>
    </g>
  </g>
  <g id="wordmark" transform="translate(400 350) scale(0.94 1)">
    <text x="0" y="0" text-anchor="start" fill="#FFFFFF" font-family="IBM Plex Sans, Inter, system-ui, -apple-system, Segoe UI, Roboto, Arial, sans-serif" font-size="96" font-weight="600" letter-spacing="-0.5">Nimburion</text>
  </g>
</svg>